<svg xmlns="http://www.w3.org/2000/svg" xmlns:xlink="http://www.w3.org/1999/xlink" width="375" height="284" viewBox="0 0 375 284">
    <defs>
        <path id="a" d="M0 0h426v301H0z"/>
        <linearGradient id="c" x1="0%" y1="50.5%" y2="50.5%">
            <stop offset="0%" stop-color="gray" stop-opacity=".25"/>
            <stop offset="54%" stop-color="gray" stop-opacity=".12"/>
            <stop offset="100%" stop-color="gray" stop-opacity=".1"/>
        </linearGradient>
        <linearGradient id="d" x1="0%" x2="100.84%" y1="49.5%" y2="49.5%">
            <stop offset="0%" stop-color="gray" stop-opacity=".25"/>
            <stop offset="54%" stop-color="gray" stop-opacity=".12"/>
            <stop offset="100%" stop-color="gray" stop-opacity=".1"/>
        </linearGradient>
        <linearGradient id="e" x1="0%" x2="100.84%" y1="50.5%" y2="50.5%">
            <stop offset="0%" stop-color="gray" stop-opacity=".25"/>
            <stop offset="54%" stop-color="gray" stop-opacity=".12"/>
            <stop offset="100%" stop-color="gray" stop-opacity=".1"/>
        </linearGradient>
    </defs>
    <g fill="none" fill-rule="evenodd" transform="translate(-26 -17)">
        <mask id="b" fill="#fff">
            <use xlink:href="#a"/>
        </mask>
        <use fill="#0A66F8" xlink:href="#a"/>
        <g mask="url(#b)">
            <path fill="#FFC107" fill-rule="nonzero" d="M377.2 158.6V133H362v25.6h-18V119h-13.2V89.4H320V59h-22.4v30.4h-10.8V119H274V83.4h-7.2v-18h-4.4v18h-25.6V197h-19.6v-12h-12v12h-19.6v-38.4h-35.2V133h-15.2v25.6h-.8v49.2h-16V179H99.2v28.8h-16V119H70.8V89.4H25.2V119h-12v156.4h382V158.6z" opacity=".3"/>
            <path fill="#FFF" fill-rule="nonzero" d="M20.8 128.2h16.8v9.6H20.8zM75.2 137.8H58.4v-9.6h16.8zM20.8 147h16.8v9.6H20.8zM75.2 156.6H58.4V147h16.8zM20.8 165.8h16.8v9.6H20.8zM75.2 175.4H58.4v-9.6h16.8zM20.8 184.6h16.8v9.6H20.8zM75.2 194.2H58.4v-9.6h16.8zM20.8 203.4h16.8v9.6H20.8zM75.2 213H58.4v-9.6h16.8zM20.8 222.2h16.8v9.6H20.8zM75.2 231.8H58.4v-9.6h16.8zM20.8 241h16.8v9.6H20.8zM75.2 250.6H58.4V241h16.8zM89.2 217.4h39.2v4.8H89.2zM89.2 224.6h39.2v4.8H89.2zM89.2 231.8h39.2v4.8H89.2zM191.6 219.8h39.2v4.8h-39.2zM191.6 227h39.2v4.8h-39.2zM191.6 234.2h39.2v4.8h-39.2zM89.2 239h39.2v4.8H89.2zM89.2 246.2h39.2v4.8H89.2zM89.2 253.4h39.2v4.8H89.2zM142.8 167.8h10.8v14h-10.8zM177.2 181.8h-10.8v-14h10.8zM142.8 190.2h10.8v14h-10.8zM177.2 204.2h-10.8v-14h10.8zM142.8 212.6h10.8v14h-10.8zM177.2 226.6h-10.8v-14h10.8zM142.8 235h10.8v14h-10.8zM177.2 249h-10.8v-14h10.8zM236.8 92.6h14.4V111h-14.4zM236.8 119h14.4v18.4h-14.4zM236.8 145.4h14.4v18.4h-14.4zM236.8 171.8h14.4v18.4h-14.4zM236.8 198.2h14.4v18.4h-14.4zM236.8 224.6h14.4V243h-14.4zM282.2 130.2h53.6v15.6h-53.6zM282.4 163.8H336v15.6h-53.6zM282.6 197.4h53.6V213h-53.6zM282.8 231h53.6v15.6h-53.6zM25.2 97.8h7.2V113h-7.2zM377.2 167.8h18V191h-18zM377.2 201.4h18v23.2h-18zM377.2 235h18v23.2h-18z" opacity=".4"/>
            <path fill="#FFC107" fill-rule="nonzero" d="M33.068 250.82s-31.492 19 26.56 48.252c0 0 12.8-23.744-1.352-43.104-5.68-7.81-16.305-10.139-24.732-5.42l-.476.272z"/>
            <path stroke="#535461" stroke-width=".5" d="M33.432 250.42s26.948 20.62 26.196 48.652"/>
            <path stroke="#535461" stroke-width=".8" d="M61.092 300.152s-9.868-33.504 1.852-58.164c4.92-10.348 6.552-21.968 4.28-33.2a89 89 0 0 0-4.7-15.6"/>
            <path fill="#FFC107" fill-rule="nonzero" d="M69.8 177.624c0 4.108-7.436 16-7.436 16s-7.436-11.908-7.436-16a7.436 7.436 0 1 1 14.868 0h.004zM82.104 200.368c-2.232 3.448-14.944 9.4-14.944 9.4s.232-14.036 2.464-17.484a7.436 7.436 0 0 1 12.48 8.08v.004zM81.564 239.236c-3.668 1.848-17.644.572-17.644.572s7.284-12 10.952-13.848a7.436 7.436 0 0 1 6.696 13.276h-.004zM74.536 268.552c-3.3 2.44-17.296 3.544-17.296 3.544s5.152-13.056 8.452-15.5a7.436 7.436 0 1 1 8.844 11.956zM51.548 210.564c2.944 2.86 16.668 5.824 16.668 5.824s-3.36-13.628-6.304-16.492a7.436 7.436 0 1 0-10.36 10.664l-.004.004zM43.764 244.952c3.668 1.848 17.644.572 17.644.572s-7.284-12-10.952-13.848a7.436 7.436 0 0 0-6.696 13.276h.004zM40.784 279.416c3.3 2.44 17.296 3.544 17.296 3.544s-5.152-13.06-8.456-15.5a7.436 7.436 0 0 0-8.844 11.956h.004z"/>
            <path fill="#000" fill-rule="nonzero" d="M69.8 177.624c0 4.108-7.436 16-7.436 16s-7.436-11.908-7.436-16a7.436 7.436 0 1 1 14.868 0h.004zM82.104 200.368c-2.232 3.448-14.944 9.4-14.944 9.4s.232-14.036 2.464-17.484a7.436 7.436 0 0 1 12.48 8.08v.004zM81.564 239.236c-3.668 1.848-17.644.572-17.644.572s7.284-12 10.952-13.848a7.436 7.436 0 0 1 6.696 13.276h-.004zM74.536 268.552c-3.3 2.44-17.296 3.544-17.296 3.544s5.152-13.056 8.452-15.5a7.436 7.436 0 1 1 8.844 11.956zM51.548 210.564c2.944 2.86 16.668 5.824 16.668 5.824s-3.36-13.628-6.304-16.492a7.436 7.436 0 1 0-10.36 10.664l-.004.004zM43.764 244.952c3.668 1.848 17.644.572 17.644.572s-7.284-12-10.952-13.848a7.436 7.436 0 0 0-6.696 13.276h.004zM40.784 279.416c3.3 2.44 17.296 3.544 17.296 3.544s-5.152-13.06-8.456-15.5a7.436 7.436 0 0 0-8.844 11.956h.004z" opacity=".25"/>
            <path stroke="#535461" stroke-width=".8" d="M369.112 291.5s-9.868-33.504 1.852-58.164c4.92-10.348 6.552-21.968 4.28-33.2a89 89 0 0 0-4.7-15.6"/>
            <path fill="#FFC107" fill-rule="nonzero" d="M377.836 168.972c0 4.108-7.436 16-7.436 16s-7.436-11.908-7.436-16a7.436 7.436 0 1 1 14.868 0h.004zM390.124 191.716c-2.232 3.448-14.944 9.4-14.944 9.4s.232-14.036 2.464-17.484a7.436 7.436 0 1 1 12.48 8.08v.004zM389.588 230.584c-3.668 1.848-17.644.572-17.644.572s7.284-12 10.952-13.848a7.436 7.436 0 0 1 6.696 13.276h-.004zM382.56 259.9c-3.3 2.44-17.296 3.544-17.296 3.544s5.152-13.056 8.452-15.5a7.436 7.436 0 0 1 8.844 11.956zM359.568 201.9c2.944 2.86 16.668 5.824 16.668 5.824s-3.36-13.628-6.304-16.492a7.437 7.437 0 0 0-10.364 10.668zM351.8 236.3c3.668 1.848 17.644.572 17.644.572s-7.284-12-10.952-13.848A7.436 7.436 0 0 0 351.8 236.3zM348.804 270.764c3.3 2.44 17.296 3.544 17.296 3.544s-5.152-13.056-8.452-15.5a7.436 7.436 0 0 0-8.844 11.956z"/>
            <path stroke="#535461" stroke-width=".8" d="M324.6 288.24s-5.304-18 .996-31.256a28.436 28.436 0 0 0 2.3-17.84 47.828 47.828 0 0 0-2.524-8.372"/>
            <path fill="#FFC107" fill-rule="nonzero" d="M329.288 222.392c0 2.208-4 8.604-4 8.604s-4-6.4-4-8.604a4 4 0 1 1 8 0zM335.892 234.616c-1.2 1.852-8.032 5.052-8.032 5.052s.124-7.544 1.324-9.396a4 4 0 1 1 6.708 4.344zM335.604 255.5c-1.972.992-9.484.308-9.484.308s3.916-6.448 5.884-7.44a4 4 0 0 1 3.6 7.136v-.004zM331.824 271.256c-1.776 1.312-9.296 1.904-9.296 1.904s2.768-7.016 4.544-8.328a4 4 0 0 1 4.752 6.424zM319.472 240.096c1.6 1.536 8.956 3.132 8.956 3.132s-1.804-7.324-3.388-8.86a4 4 0 1 0-5.568 5.732v-.004zM315.288 258.576c1.972.992 9.484.308 9.484.308s-3.916-6.448-5.884-7.44a4 4 0 0 0-3.6 7.136v-.004zM313.688 277.1c1.776 1.312 9.296 1.904 9.296 1.904s-2.784-7.02-4.544-8.332a4 4 0 0 0-4.752 6.428z"/>
            <path fill="#252223" fill-rule="nonzero" d="M119.072 78.072h-2.752a1.928 1.928 0 1 0 0-3.852H94.028a1.928 1.928 0 0 0 0 3.852h2.752a1.928 1.928 0 1 0 0 3.852h-3.852a1.928 1.928 0 1 0 0 3.852h22.292a1.928 1.928 0 1 0 0-3.852h3.852a1.928 1.928 0 1 0 0-3.852zM217.472 126.472h-2.752a1.928 1.928 0 1 0 0-3.852h-22.292a1.928 1.928 0 0 0 0 3.852h2.752a1.928 1.928 0 1 0 0 3.852h-3.852a1.928 1.928 0 1 0 0 3.852h22.292a1.928 1.928 0 1 0 0-3.852h3.852a1.928 1.928 0 1 0 0-3.852zM385.072 63.272h-2.752a1.928 1.928 0 1 0 0-3.852h-22.292a1.928 1.928 0 0 0 0 3.852h2.752a1.928 1.928 0 1 0 0 3.852h-3.852a1.928 1.928 0 1 0 0 3.852h22.292a1.928 1.928 0 0 0 0-3.852h3.852a1.928 1.928 0 1 0 0-3.852z" opacity=".1"/>
            <path fill="url(#c)" fill-rule="nonzero" d="M208.228 186.476l-.476.348c.175-.092.335-.21.476-.348z" transform="translate(-36 15)"/>
            <path fill="url(#d)" fill-rule="nonzero" d="M208.6 186.852l-.476.348c.175-.092.335-.21.476-.348z" transform="translate(-36 15)"/>
            <path fill="url(#e)" fill-rule="nonzero" d="M208.6 186.476l-.476.348c.175-.092.335-.21.476-.348z" transform="translate(-36 15)"/>
            <path fill="#4D8AF0" fill-rule="nonzero" d="M172.912 166.212l-3.464 3.104 5.108 6.384z"/>
            <path fill="#000" fill-rule="nonzero" d="M182.941 94.184l5.013.98-.191.98-5.014-.978z" opacity=".05"/>
            <g fill-rule="nonzero" transform="translate(84 123)">
                <path fill="#3C354C" d="M31.8 171.12h127.68v1H31.8z"/>
                <path fill="#57B894" d="M71.369 77.575c-.029-1.2-.365-2.205-.847-2.76l-.382 1.505v-1.807a.917.917 0 0 0-.56-.132c-.938.086-1.662 1.663-1.62 3.52.044 1.858.84 3.296 1.78 3.21.938-.087 1.672-1.671 1.629-3.536z"/>
                <path fill="#000" d="M71.14 78.48c-.393.086-.774.329-1.168.377-.394.048-.826-.14-1.073-.747-.134-.326-.201-.739-.314-1.096a2.23 2.23 0 0 0-.43-.797 6.206 6.206 0 0 0-.182 1.68c.043 1.857.84 3.293 1.778 3.206.787-.072 1.423-1.2 1.582-2.654a1.68 1.68 0 0 0-.192.031z" opacity=".1"/>
                <path fill="#57B894" d="M149.34 65.17c-.84-.843-1.783-1.347-2.515-1.416l.751 1.344-1.236-1.318a.929.929 0 0 0-.497.288c-.621.72-.06 2.352 1.253 3.67 1.313 1.317 2.88 1.81 3.5 1.099.618-.71.05-2.357-1.256-3.667z"/>
                <path fill="#000" d="M149.786 65.978c-.225.332-.336.77-.588 1.076-.252.304-.693.468-1.29.201-.325-.144-.658-.398-.985-.578a2.227 2.227 0 0 0-.861-.286c.28.494.625.946 1.027 1.347 1.313 1.317 2.88 1.81 3.499 1.099.518-.595.206-1.846-.682-3.012-.044.048-.084.1-.12.153z" opacity=".1"/>
                <path fill="#FFC1C7" d="M87.643 70.08l-4.133-2.4s-9.988-1.378-8.61-6.2c1.377-4.82 8.267 0 8.267 0l4.476 3.08v5.52z"/>
                <path fill="#000" d="M87.643 70.08l-4.133-2.4s-9.988-1.378-8.61-6.2c1.377-4.82 8.267 0 8.267 0l4.476 3.08v5.52z" opacity=".1"/>
                <path fill="#FFC1C7" d="M102.797 45.626s-9.987 7.234-9.987 4.822c0-1.44-1.742-5.887-3.134-9.197-.922-2.193-1.68-3.89-1.68-3.89l10.32-2.755a12.05 12.05 0 0 0 .115 5.04 9.715 9.715 0 0 0 4.366 5.98zM82.14 107.026s-7.92 17.565-5.167 24.108c0 0-8.609 26.176-11.364 27.208-2.755 1.032 6.888 2.756 6.888 2.756s11.359-15.154 12.043-27.21c.684-12.054 13.092-24.448 13.092-24.448l-15.492-2.414zM100.38 114.163s4.476 14.467 10.332 18.6c0 0 12.055 19.975 10.32 26.175 0 0 6.888 1.034 7.234 0 0 0-3.101-21.699-10.678-30.308-7.577-8.608-4.114-18.95-4.114-18.95l-13.094 4.483z"/>
                <path fill="#F2F2F2" d="M70.078 158.688s-4.133-3.444-7.232-.689c-3.098 2.755-8.61 2.067-12.744.689-4.132-1.378-3.787 2.066 5.856 6.542 9.644 4.476 15.154 5.52 15.154 5.52s1.378-5.52 1.378-6.888c0-1.368.856-3.952.856-3.952l-3.268-1.222zM124.495 158.249s-4.133-2.4-4.821 2.066c-.69 4.467-10.678 7.234-10.678 7.234s-4.822 4.476 9.989 3.091c14.81-1.385 13.776-4.133 13.776-4.133l-4.69-8.913-3.576.655z"/>
                <path fill="#3F3D56" d="M87.643 91.09s-10.677 15.153-6.545 16.874c4.133 1.72 3.79-2.755 7.92 2.066 4.13 4.822 14.81 2.4 16.188 1.378 1.378-1.022 4.822-5.52 7.577-5.165 2.755.355-4.483-17.565-4.483-17.565L87.643 91.09z"/>
                <path fill="#000" d="M97.5 38.16c-1.474 1.375-2.515 3.708-4.69 3.708a8.21 8.21 0 0 1-3.134-.617c-.922-2.193-1.68-3.89-1.68-3.89l10.32-2.755c-.336 1.972-1.169 2.152-.816 3.554z" opacity=".1"/>
                <circle cx="92.81" cy="32.882" r="8.266" fill="#FFC1C7"/>
                <path fill="#F2F2F2" d="M97.632 44.594s-3.571 3.624-5.23 3.879c-1.658.254-7.862 10.93-6.136 19.54 1.725 8.612-2.067 26.52-.344 27.553 1.724 1.032 29.28-3.788 29.28-3.788l-17.57-47.184z"/>
                <path fill="#FFC107" d="M101.076 42.871s-6.2-2.066-8.266 8.955c-2.066 11.02-4.821 1.723-4.821 15.84 0 14.116-1.035 19.288.689 31.341 1.723 12.053 3.098 12.055 1.032 16.188-2.067 4.133 22.041 3.101 27.897-4.821 5.856-7.923-1.723-37.541-4.821-42.02-3.099-4.478-3.101-18.252-5.52-21.696a9.242 9.242 0 0 0-6.19-3.787z"/>
                <path fill="#2F2E41" d="M100.891 110.285l-3.05-3.816L88.104 60l6.545-12.216a7.248 7.248 0 0 1 5.563-3.78c2.35-.289 4.69.61 6.24 2.4 9.473 10.786 14.227 44.23 14.424 45.648l.02.134-.96 2.499-5.04 11.297-14.005 4.303zm-2.09-4.267l2.457 3.072 12.874-3.97 4.838-10.843.862-2.225c-.34-2.347-5.182-34.76-14.16-44.978a6.202 6.202 0 0 0-10.116 1.185l-6.365 11.887 9.61 45.872z"/>
                <path fill="#FFC107" d="M80.066 63.88l-8.95-7.96a.54.54 0 0 1-.088-.7l.11-.169a.48.48 0 0 1 .737-.086l8.16 7.56a.936.936 0 0 1 .031 1.356z"/>
                <path fill="#192534" d="M80.066 63.88l-8.95-7.96a.54.54 0 0 1-.088-.7l.11-.169 8.907 7.987a.578.578 0 0 1 .021.843z"/>
                <path fill="#FFC1C7" d="M106.586 65.602s-12.744-1.032-15.153-5.52c-2.41-4.488-8.611-2.067-6.888 0 1.723 2.066 1.377 6.888 6.199 7.233 4.822.346 16.874 2.765 16.874 2.765l-1.032-4.478z"/>
                <path fill="#2F2E41" d="M120.362 92.122s-8.61.688-10.677 9.643c-2.067 8.954-11.364 4.478-11.364 4.478s-1.035 23.42 14.119 17.566c15.154-5.854 18.6-16.877 18.6-18.255 0-1.377-10.332-9.643-10.678-13.432z"/>
                <path fill="#000" d="M99.01 107.964s9.29 4.478 11.364-4.476c1.968-8.53 9.866-9.56 10.615-9.638a4.61 4.61 0 0 1-.627-1.728s-8.61.688-10.677 9.643c-2.067 8.954-11.364 4.478-11.364 4.478s-.336 7.644 2.2 13.107c-1.783-5.216-1.511-11.386-1.511-11.386zM130.966 106.08c.04-.17.065-.344.074-.518 0-1.179-7.562-7.402-9.962-11.547.508 3.202 7.536 9.31 9.888 12.065z" opacity=".1"/>
                <path fill="#2F2E41" d="M82.14 27.084c-.48 1.507 1.073 3.031 2.64 3.19 1.567.158 3.086-.593 4.522-1.265 1.435-.672 3.038-1.301 4.572-.893 1.68.444 2.798 2.006 3.544 3.566a17.789 17.789 0 0 1 1.414 4.292c.307 1.588.449 3.336 1.54 4.536 1.093 1.2 2.905 1.524 4.56 1.516 1.657-.007 3.332-.24 4.928.168 3.168.826 5.129 3.982 6.26 7.047 1.13 3.065 1.809 6.403 3.856 8.954 1.706 2.131 4.195 3.483 6.689 4.603 1.257.564 2.56 1.09 3.933 1.22 1.373.13 2.847-.19 3.84-1.13 1.121-1.052 1.481-2.655 1.786-4.158.444-2.179.888-4.418.52-6.614-.48-2.88-2.33-5.412-2.754-8.304-.413-2.813.559-5.652.46-8.494-.165-4.756-3.667-9.216-8.258-10.519-1.68-.48-3.444-.566-5.057-1.2-2.102-.837-3.722-2.522-5.44-3.993a33.094 33.094 0 0 0-14.283-7.136c-3.538-.784-7.723-.796-10.224 1.817-1.015 1.063-1.68 2.501-2.976 3.211-.665.368-1.428.5-2.143.747-3.533 1.214-5.563 5.616-4.193 9.081"/>
                <path fill="#000" d="M132.677 60.574c-1.373-.13-2.676-.656-3.934-1.22-2.493-1.12-4.98-2.472-6.689-4.603-2.047-2.551-2.728-5.887-3.856-8.954-1.128-3.067-3.092-6.221-6.26-7.047-1.596-.417-3.278-.175-4.927-.168-1.649.008-3.444-.297-4.56-1.516-1.116-1.22-1.233-2.948-1.54-4.536a17.76 17.76 0 0 0-1.414-4.292c-.747-1.56-1.87-3.12-3.545-3.566-1.534-.408-3.137.22-4.572.893-1.435.672-2.942 1.423-4.522 1.265-1.579-.159-3.12-1.68-2.64-3.19l-.24.24a6.648 6.648 0 0 1-.163-4.24c-2.033 1.907-2.942 5.063-1.905 7.68l.24-.24c-.48 1.506 1.072 3.03 2.64 3.189 1.567.158 3.086-.593 4.521-1.265 1.435-.672 3.039-1.3 4.572-.893 1.68.444 2.799 2.007 3.545 3.567a17.789 17.789 0 0 1 1.414 4.29c.307 1.59.448 3.337 1.54 4.537 1.092 1.2 2.904 1.524 4.56 1.517 1.656-.008 3.332-.24 4.928.168 3.168.825 5.128 3.981 6.259 7.046 1.13 3.065 1.81 6.403 3.857 8.954 1.706 2.132 4.195 3.483 6.688 4.604 1.258.564 2.561 1.09 3.934 1.219 1.373.13 2.846-.19 3.84-1.13.845-.793 1.258-1.901 1.54-3.044a5.251 5.251 0 0 1-3.311.735z" opacity=".1"/>
                <path fill="#FFC107" d="M97.632 47.693s-1.034 7.577 2.755 9.3c3.79 1.723 6.543 7.567 6.543 7.567l-3.099.689s-1.034 4.821 1.721 6.199c2.755 1.378 10.332 0 10.332 0s3.446-1.723.689-7.234c-2.758-5.51-10.673-17.553-10.673-17.553s-4.135-4.479-8.268 1.032z"/>
                <ellipse cx="98.64" cy="33" fill="#FFC1C7" rx="1.658" ry="2.486"/>
                <circle cx="98.64" cy="33.276" r="1" fill="#F2F2F2"/>
                <ellipse cx="97.948" cy="34.519" fill="#F2F2F2" rx="1" ry="1" transform="rotate(-63.3 97.948 34.519)"/>
                <path fill="#57B894" d="M132.809 8.695c-.029-1.188-.365-2.205-.847-2.76l-.382 1.505V5.633a.917.917 0 0 0-.56-.132c-.938.086-1.662 1.663-1.62 3.52.044 1.858.84 3.296 1.78 3.21.938-.087 1.672-1.671 1.629-3.536z"/>
                <path fill="#000" d="M132.58 9.6c-.393.086-.774.329-1.168.377-.394.048-.826-.14-1.073-.747-.134-.326-.201-.739-.314-1.096a2.23 2.23 0 0 0-.43-.797 6.206 6.206 0 0 0-.182 1.68c.043 1.857.84 3.293 1.778 3.206.787-.072 1.423-1.2 1.582-2.654a1.68 1.68 0 0 0-.192.031z" opacity=".1"/>
                <path fill="#57B894" d="M150.209 106.6c1.087-.48 1.896-1.182 2.222-1.842l-1.524.22 1.68-.681a.929.929 0 0 0-.091-.567c-.44-.832-2.174-.897-3.874-.144-1.699.754-2.721 2.038-2.282 2.88.44.843 2.167.888 3.869.135z"/>
                <path fill="#000" d="M149.292 106.733c-.24-.329-.6-.588-.794-.934-.195-.345-.19-.816.276-1.277.24-.24.604-.48.89-.72.238-.19.433-.43.574-.7a6.266 6.266 0 0 0-1.623.48c-1.699.753-2.721 2.037-2.282 2.88.37.698 1.651.856 3.057.444a1.704 1.704 0 0 0-.098-.173z" opacity=".1"/>
                <path fill="#57B894" d="M57.809 117.64c1.087-.48 1.896-1.182 2.222-1.842l-1.524.22 1.68-.681a.929.929 0 0 0-.091-.567c-.44-.832-2.174-.897-3.874-.144-1.699.754-2.721 2.038-2.282 2.88.44.843 2.167.888 3.869.135z"/>
                <path fill="#000" d="M56.892 117.773c-.24-.329-.6-.588-.794-.934-.195-.345-.19-.816.276-1.277.24-.24.604-.48.89-.72.238-.19.433-.43.574-.7a6.266 6.266 0 0 0-1.623.48c-1.699.753-2.721 2.037-2.282 2.88.37.698 1.651.856 3.057.444a1.704 1.704 0 0 0-.098-.173zM59.4 46.289L53.213 35.52H0V.24h70.08v35.28H59.4v10.769zM.24 35.28h53.112l5.808 10.111V35.28h10.68V.48H.24v34.8z" opacity=".1"/>
            </g>
            <g fill-rule="nonzero" transform="translate(142 126)">
                <path fill="#2F2E41" d="M156.2 57.178l-2 44.8s5.2 42.4 4 43.6c-1.2 1.2-4.4 3.6-2 6.4 2.4 2.8 11.2 4.8 11.6 3.2.4-1.6 1.2-47.2 1.2-47.2l2.8-54-15.6 3.2z"/>
                <path fill="#000" d="M156.2 57.178l-2 44.8s5.2 42.4 4 43.6c-1.2 1.2-4.4 3.6-2 6.4 2.4 2.8 11.2 4.8 11.6 3.2.4-1.6 1.2-47.2 1.2-47.2l2.8-54-15.6 3.2z" opacity=".2"/>
                <path fill="#2F2E41" d="M158.2 151.178s-10 7.6-11.2 7.6c-1.2 0-12 3.6-4.4 5.2s26 .8 26.4-1.6c.4-2.4-1.2-9.684-1.2-9.684l-9.6-1.516z"/>
                <path fill="#000" d="M158.2 151.178s-10 7.6-11.2 7.6c-1.2 0-12 3.6-4.4 5.2s26 .8 26.4-1.6c.4-2.4-1.2-9.684-1.2-9.684l-9.6-1.516z" opacity=".2"/>
                <path fill="#FFC107" d="M133.4 23.578s-4.4 1.6-4.4 2.8c0 1.2-4 16.4-4.8 17.2-.8.8-1.2 4.4-1.2 4.4s-4 9.2-3.2 9.2c.8 0 7.6-1.6 8 0 .4 1.6 3.6-10 3.6-10l6.8-13.6-4.8-10z"/>
                <path fill="#FFB8B8" d="M119.8 58.778s1.2 8.8 4.4 9.6c3.2.8 0-11.2 0-11.2l-4.4 1.6zM130.2 18.778s2.4 5.2 3.6 8c1.2 2.8 12.4-7.2 12.4-7.2s-6-4.4-6-6.4-10 5.6-10 5.6z"/>
                <path fill="#3F3D56" d="M14.816 148.8c2.682 9.916 11.87 16.058 11.87 16.058s4.84-9.936 2.157-19.853c-2.683-9.916-11.87-16.057-11.87-16.057s-4.84 9.936-2.157 19.852z"/>
                <path fill="#FFC107" d="M18.757 146.669c7.361 7.165 8.26 18.18 8.26 18.18s-11.035-.602-18.396-7.768c-7.36-7.165-8.26-18.18-8.26-18.18s11.036.602 18.396 7.768z"/>
                <path fill="#EBEBEB" d="M110.2 165.378c-20.103 0-36.4-16.297-36.4-36.4 0-20.103 16.297-36.4 36.4-36.4 20.103 0 36.4 16.297 36.4 36.4-.023 20.094-16.306 36.377-36.4 36.4zm0-72c-19.661 0-35.6 15.938-35.6 35.6 0 19.661 15.939 35.6 35.6 35.6s35.6-15.939 35.6-35.6c-.022-19.652-15.948-35.578-35.6-35.6zM222.2 165.178c-20.103 0-36.4-16.297-36.4-36.4 0-20.103 16.297-36.4 36.4-36.4 20.103 0 36.4 16.297 36.4 36.4-.023 20.094-16.306 36.377-36.4 36.4zm0-72c-19.661 0-35.6 15.938-35.6 35.6 0 19.661 15.939 35.6 35.6 35.6s35.6-15.939 35.6-35.6c-.022-19.652-15.948-35.578-35.6-35.6z"/>
                <circle cx="110.2" cy="128.778" r="2.4" fill="#2F2E41"/>
                <circle cx="223" cy="128.778" r="2.4" fill="#EBEBEB"/>
                <path fill="#EBEBEB" d="M113.768 125.335l-.736-.314 20.906-49.049 59.284 1.21.115.18 29.2 45.6-.674.432-29.085-45.42-58.316-1.19z"/>
                <path fill="#EBEBEB" d="M176.05 134.451l15.365-54.182.77.218-15.035 53.017 40.2-5.123.1.794z"/>
                <path fill="#EBEAFF" d="M131.915 88.658l.713-.7 41.2 42-.713.7z"/>
                <path fill="#EBEBEB" d="M193.016 76.274l2.396-8.801.965.263-2.396 8.8z"/>
                <path fill="#EBEAFF" d="M135.39 73.666l-.78-.177 1.889-8.311H129.8v-5.2h.8v4.4h6.901z"/>
                <path fill="#2F2E41" d="M181 59.578s0-2.4 5.2-1.2 21.2 4.4 22.4 4c1.2-.4.8 2.4-4.4 3.6-5.2 1.2-11.2-1.6-12.4-2.4-1.2-.8-10.8-4-10.8-4z"/>
                <path fill="#FFC107" d="M156.2 131.178h10.4v4h-10.4z"/>
                <path fill="#EBEAFF" d="M176.6 141.978a8 8 0 1 1 8-8 8.009 8.009 0 0 1-8 8zm0-15.2a7.2 7.2 0 1 0 7.2 7.2 7.208 7.208 0 0 0-7.2-7.2z"/>
                <circle cx="133.8" cy="13.178" r="9.6" fill="#FFB8B8"/>
                <path fill="#2F2E41" d="M164.2 57.978s-27.6 16-27.2 21.2c.4 5.2 21.2 33.6 21.2 33.6s1.6 8.4 3.2 8.4 11.6 3.6 12 1.2c.4-2.4-3.2-5.2-2.8-6.8.4-1.6-17.6-30.8-17.6-30.8s38.523-14.4 30.461-26.8c-8.061-12.4-19.261 0-19.261 0z"/>
                <path fill="#2F2E41" d="M165 119.578s-4.8 1.2-5.6 2.8c-.8 1.6-14.8 6.8-10.8 8 4 1.2 27.2 1.6 28 .8.8-.8 0-10.085-3.2-10.043-3.2.043-6.8 1.243-8.4-1.557z"/>
                <path fill="#FFC107" d="M133.8 27.978l9-11s10.2-3 14.6 3 16.4 20.8 20.4 24c4 3.2 9.6 15.6 7.6 16-2 .4-13.2-4.4-17.6-1.2-4.4 3.2-12.8 3.6-13.2 2-.4-1.6-24.4-28.4-24.4-32 0-3.6 2.557-4.373 2.557-4.373l1.043 3.573z"/>
                <rect width="15.2" height="2.4" x="124.6" y="57.578" fill="#2F2E41" rx="1.2" transform="rotate(19.471 132.2 58.778)"/>
                <path fill="#FFB8B8" d="M111.4 54.778s-14 4-12.8 8.4c1.2 4.4 14-5.2 14-5.2l-1.2-3.2z"/>
                <path fill="#FFC107" d="M147.8 19.978s-5.6 4.8-6.8 10.4c-1.2 5.6-7.2 15.6-7.2 15.6l-24.4 8s-1.6 7.6.8 7.6c2.4 0 29.2-5.6 30-6.8.8-1.2 18-24 18-24s1.6-12.4-10.4-10.8z"/>
                <path fill="#2F2E41" d="M127.837 2.066c-.236.204-.52.346-.824.414a.588.588 0 0 1-.682-.472c-.176.49-.504.91-.935 1.2-.458.238-1.167.038-1.233-.474a2.162 2.162 0 0 1-.497 1.05.745.745 0 0 1-1.048.035c.2 1.097.077 2.224.14 3.337.063 1.112.36 2.292 1.2 3.023 1.226 1.067 3.07.804 4.682.602.244-.051.497-.037.734.04.604.257.576 1.098.585 1.754a4.874 4.874 0 0 0 4.267 4.628c.64.1 1.293-.06 1.816-.443.458-.388.692-1.02 1.216-1.312.854-.474 1.889.217 2.513.968.624.751 1.239 1.675 2.205 1.812 1.279.182 2.253-1.12 2.73-2.32a13.529 13.529 0 0 0-.269-10.512c-2.669-5.819-11.788-6.74-16.6-3.33z"/>
                <circle cx="262.4" cy="94.978" r="4" fill="#3F3D56"/>
            </g>
        </g>
    </g>
</svg>
