<svg xmlns="http://www.w3.org/2000/svg" width="48" height="48" viewBox="0 0 48 48">
    <g fill="#353B54" fill-rule="evenodd" transform="translate(-685 -549)">
        <circle cx="709" cy="573" r="24" fill-opacity=".08"/>
        <path d="M709 582.171c.365 0 .672.268.726.632l.007.101v1.144a.733.733 0 0 1-1.459.1l-.007-.1v-1.144c0-.405.328-.733.733-.733zm0-21.233c.589 0 1.126.3 1.434.802l.075.136 2.349 4.759c.025.05.068.09.112.105l.05.013 5.252.763c.638.093 1.159.532 1.358 1.145.182.56.063 1.163-.32 1.612l-.105.113-3.8 3.704a.216.216 0 0 0-.065.127l.002.065.897 5.23a1.673 1.673 0 0 1-.669 1.646 1.676 1.676 0 0 1-1.625.196l-.147-.068-4.697-2.47a.216.216 0 0 0-.14-.022l-.062.023-4.697 2.47c-.57.3-1.25.25-1.772-.13a1.673 1.673 0 0 1-.688-1.491l.019-.154.897-5.23a.216.216 0 0 0-.022-.14l-.04-.052-3.8-3.704a1.673 1.673 0 0 1-.426-1.725c.182-.56.633-.977 1.206-1.116l.152-.029 5.252-.763a.215.215 0 0 0 .135-.075l.028-.043 2.348-4.759a1.673 1.673 0 0 1 1.51-.938zm0 1.466c-.04 0-.08.01-.112.028l-.043.035-.039.058-2.348 4.758a1.682 1.682 0 0 1-.952.843l-.158.047-.157.03-5.252.764a.203.203 0 0 0-.175.147.23.23 0 0 0-.008.116l.02.052.043.054 3.8 3.704c.316.309.497.726.507 1.165l-.003.166-.02.159-.897 5.23a.203.203 0 0 0 .086.212c.032.023.07.04.107.044l.056-.003.065-.025 4.697-2.47a1.683 1.683 0 0 1 1.265-.122l.156.055.145.068 4.697 2.47c.087.045.164.03.228-.017a.23.23 0 0 0 .075-.089l.014-.053-.003-.07-.897-5.23a1.682 1.682 0 0 1 .275-1.24l.1-.132.11-.118 3.8-3.704a.203.203 0 0 0 .054-.222.231.231 0 0 0-.061-.098l-.046-.03-.068-.019-5.251-.763a1.682 1.682 0 0 1-1.095-.644l-.094-.136-.078-.14-2.343-4.75-.037-.057a.206.206 0 0 0-.163-.073zm-9.582 12.807l.026.105a.736.736 0 0 1-.403.78l-.094.039-1.087.353a.732.732 0 0 1-.547-1.356l.094-.038 1.087-.354a.733.733 0 0 1 .924.471zm19.354.063c-.09.28.063.58.343.672l1.087.353a.533.533 0 1 0 .33-1.014l-1.088-.353a.533.533 0 0 0-.672.342zm-2.317-13.435l.081.069c.227.22.287.567.14.86l-.059.095-.672.925a.732.732 0 0 1-1.244-.767l.058-.095.672-.925a.733.733 0 0 1 1.024-.162zm-13.966.068l.077.09.672.925a.733.733 0 0 1-1.113.947l-.073-.085-.672-.925a.733.733 0 0 1 1.109-.952z"/>
    </g>
</svg>
