<svg xmlns="http://www.w3.org/2000/svg" width="32" height="32" viewBox="0 0 32 32">
    <path fill="#353B54" fill-rule="evenodd" d="M13.95 5c4.94 0 8.95 4.01 8.95 8.95a8.914 8.914 0 0 1-1.765 5.337l-.206.266 4.985 4.985.08.09a.974.974 0 1 1-1.369 1.366l-.091-.08-4.985-4.981A8.901 8.901 0 0 1 13.95 22.9 8.95 8.95 0 0 1 5 13.95 8.95 8.95 0 0 1 13.95 5zm0 1.957c-3.856 0-6.993 3.138-6.993 6.993 0 3.854 3.136 6.989 6.993 6.989 3.854 0 6.993-3.136 6.993-6.989 0-3.853-3.14-6.993-6.993-6.993z"/>
</svg>
