<svg xmlns="http://www.w3.org/2000/svg" width="24" height="24" viewBox="0 0 24 24">
    <path fill="#353B54" fill-rule="evenodd" d="M15.671 5c.288 0 .526.216.561.494l.005.071v.59h1.167c.912 0 1.66.713 1.717 1.611l.003.11v9.528c0 .912-.713 1.66-1.611 1.717l-.11.003H6.72c-.912 0-1.66-.713-1.717-1.611L5 17.403V7.876c0-.912.713-1.66 1.611-1.717l.11-.003h1.166v-.59a.565.565 0 0 1 1.126-.07l.005.07v.59h6.088v-.59c0-.312.253-.565.565-.565zm2.323 5.173H6.13v7.23c0 .326.265.59.59.59h10.684a.59.59 0 0 0 .59-.59v-7.23zM7.887 7.285H6.72a.59.59 0 0 0-.59.59v1.168h11.864V7.875a.59.59 0 0 0-.59-.59h-1.168v.301a.565.565 0 0 1-1.13 0v-.3H9.018v.3a.565.565 0 0 1-1.13 0v-.3z"/>
</svg>
