<svg xmlns="http://www.w3.org/2000/svg" width="48" height="48" viewBox="0 0 48 48">
    <g fill="#353B54" fill-rule="evenodd" transform="translate(-514 -549)">
        <circle cx="538" cy="573" r="24" fill-opacity=".08"/>
        <path d="M538.727 561.169a1.649 1.649 0 0 0-1.63.1 1.69 1.69 0 0 0-.764 1.418c0 2.544-.63 3.638-2.787 5.405l-.486.39c-2.961 2.33-4.06 3.87-4.06 7.096 0 5.185 4.024 9.422 9 9.422s9-4.237 9-9.422c0-5.428-4.527-12.39-8.075-14.307l-.198-.102zm-.403 2.067c2.874 1.845 6.676 7.851 6.676 12.342 0 4.103-3.153 7.422-7 7.422s-7-3.319-7-7.422c0-2.456.771-3.538 3.297-5.525 2.73-2.15 3.844-3.626 4.013-6.522l.014-.295z"/>
    </g>
</svg>
