<svg xmlns="http://www.w3.org/2000/svg" width="48" height="48" viewBox="0 0 48 48">
    <g fill="#353B54" fill-rule="evenodd" transform="translate(-685 -378)">
        <circle cx="709" cy="402" r="24" fill-opacity=".08"/>
        <path d="M708.898 409.335c.377 0 .688.28.737.643l.007.1v2.975a.743.743 0 0 1-1.48.101l-.007-.1v-2.975c0-.411.332-.744.743-.744zm-5.258-2.178a.743.743 0 0 1 .072.968l-.072.084-2.103 2.103a.741.741 0 0 1-1.052 0 .743.743 0 0 1-.072-.968l.072-.084 2.103-2.103a.743.743 0 0 1 1.052 0zm11.569 0l.465.466 1.638 1.637a.743.743 0 0 1-.96 1.13l-.092-.078-2.103-2.103a.743.743 0 1 1 1.052-1.052zm-6.31-11.208c3.28 0 5.949 2.67 5.949 5.95 0 3.28-2.67 5.949-5.95 5.949a5.956 5.956 0 0 1-5.949-5.95c0-3.28 2.67-5.949 5.95-5.949zm0 1.488a4.467 4.467 0 0 0-4.462 4.461 4.467 4.467 0 0 0 4.461 4.462 4.467 4.467 0 0 0 4.462-4.462 4.467 4.467 0 0 0-4.462-4.461zm11.154 3.718a.743.743 0 0 1 .101 1.48l-.1.007h-2.975a.743.743 0 0 1-.101-1.48l.1-.007h2.975zm-19.335 0a.743.743 0 0 1 .101 1.48l-.1.007h-2.975a.743.743 0 0 1-.101-1.48l.1-.007h2.975zm16.594-7.67a.743.743 0 0 1 .072.968l-.072.084-2.103 2.103a.741.741 0 0 1-1.052 0 .743.743 0 0 1-.072-.968l.072-.084 2.103-2.103a.743.743 0 0 1 1.052 0zm-15.859-.072l.084.072 2.103 2.103a.743.743 0 1 1-1.052 1.052l-2.103-2.103a.743.743 0 0 1 .968-1.124zm7.445-3.413c.377 0 .688.28.737.643l.007.1v2.975a.743.743 0 0 1-1.48.101l-.007-.1v-2.975c0-.411.332-.744.743-.744z"/>
    </g>
</svg>
