<svg xmlns="http://www.w3.org/2000/svg" width="24" height="24" viewBox="0 0 24 24">
    <g fill="none" fill-rule="evenodd">
        <path d="M0 0h24v24H0z"/>
        <path fill="#353B54" fill-rule="nonzero" d="M14.22 6c.178 0 .268.052.268.155 0 .09-.231.146-.694.17l-.045.003c-.28.012-.451.063-.513.155-.061.093-.092.334-.092.726l-.001 3.683H16v.75h-2.857l.001.545H16v.75h-2.856v3.601c.003.587.031.907.084.961.123.127.487.202 1.092.225.123 0 .185.046.185.138 0 .092-.067.138-.202.138h-.168l-.009-.003c-.109-.033-.867-.049-2.276-.049-.224 0-.448.008-.672.022l-.226.017c-.144.009-.349.013-.614.013-.145 0-.218-.052-.218-.155 0-.092.146-.144.437-.156l.093-.003c.391-.016.624-.07.696-.16.079-.099.118-.43.118-.994l-.001-3.595H9v-.75h2.463v-.545H9v-.75h2.463l.001-3.442c0-.564-.028-.88-.084-.95-.067-.114-.375-.183-.924-.206-.213-.012-.32-.058-.32-.139 0-.103.068-.155.202-.155l2.268.035.292-.003.683-.015.638-.017z"/>
    </g>
</svg>
