<svg xmlns="http://www.w3.org/2000/svg" width="24" height="24" viewBox="0 0 24 24">
    <g fill="none" fill-rule="evenodd">
        <path d="M0 0h24v24H0z"/>
        <path fill="#353B54" fill-rule="nonzero" d="M11.625 4A5.631 5.631 0 0 0 6 9.625c0 1.048.29 2.07.84 2.958l4.465 7.195a.469.469 0 0 0 .398.222h.004a.469.469 0 0 0 .398-.228l4.352-7.265c.519-.869.793-1.865.793-2.882A5.631 5.631 0 0 0 11.625 4zm4.027 8.026l-3.956 6.605-4.06-6.542a4.682 4.682 0 0 1-.705-2.464 4.704 4.704 0 0 1 4.694-4.694 4.7 4.7 0 0 1 4.69 4.694c0 .848-.231 1.678-.663 2.4z"/>
        <path fill="#353B54" fill-rule="nonzero" d="M11.625 6.813a2.816 2.816 0 0 0-2.813 2.812 2.809 2.809 0 0 0 2.813 2.813 2.807 2.807 0 0 0 2.813-2.813 2.816 2.816 0 0 0-2.813-2.813zm0 4.693a1.883 1.883 0 0 1-1.881-1.881c0-1.034.847-1.881 1.881-1.881s1.878.847 1.878 1.881a1.88 1.88 0 0 1-1.878 1.881z"/>
    </g>
</svg>
