<svg xmlns="http://www.w3.org/2000/svg" width="48" height="48" viewBox="0 0 48 48">
    <g fill="#353B54" fill-rule="evenodd" transform="translate(-514 -207)">
        <circle cx="538" cy="231" r="24" fill-opacity=".08"/>
        <path d="M547.732 227.517h-3.208l-.985-2.958a2.244 2.244 0 0 0-2.133-1.538h-8.33c-.97 0-1.827.618-2.134 1.537l-.815 2.447a.75.75 0 0 1-.71.512h-1.169c-.6 0-1.166.234-1.59.659a2.23 2.23 0 0 0-.658 1.59v4.496c0 .414.335.75.75.75h2.997a3 3 0 0 0 2.997 2.997 3 3 0 0 0 2.998-2.998h4.496a3 3 0 0 0 2.998 2.998 3 3 0 0 0 2.997-2.998h2.998c.414 0 .75-.335.75-.75v-4.496a2.25 2.25 0 0 0-2.249-2.248zm-5.615-2.484l.828 2.484h-4.206v-2.997h2.667c.323 0 .61.206.71.513zm-9.373 11.477a1.5 1.5 0 0 1-1.498-1.499 1.5 1.5 0 0 1 1.498-1.499 1.5 1.5 0 0 1 1.5 1.5 1.5 1.5 0 0 1-1.5 1.498zm10.492 0a1.5 1.5 0 0 1-1.499-1.499 1.5 1.5 0 0 1 1.499-1.499 1.5 1.5 0 0 1 1.499 1.5 1.5 1.5 0 0 1-1.5 1.498zm5.246-2.998h-2.666a2.987 2.987 0 0 0-2.58-1.498c-1.105 0-2.061.607-2.58 1.498h-5.33a2.987 2.987 0 0 0-2.582-1.498c-1.104 0-2.06.607-2.58 1.498h-2.665v-3.747a.748.748 0 0 1 .75-.749h1.167c.97 0 1.826-.618 2.133-1.537l.815-2.447a.75.75 0 0 1 .711-.512h4.166v3.747c0 .414.335.749.75.749h9.741a.75.75 0 0 1 .75.75v3.746z"/>
    </g>
</svg>
