<svg xmlns="http://www.w3.org/2000/svg" width="32" height="32" viewBox="0 0 32 32">
    <g fill="none" fill-rule="evenodd" transform="translate(-616 -1059)">
        <circle cx="632" cy="1075" r="16" fill="#FFF" opacity=".6"/>
        <path fill="#3E5177" fill-rule="nonzero" d="M625.25 1073a2.257 2.257 0 0 0-2.25 2.25 2.257 2.257 0 0 0 2.25 2.25 2.257 2.257 0 0 0 2.25-2.25 2.257 2.257 0 0 0-2.25-2.25zm13.5 0a2.257 2.257 0 0 0-2.25 2.25 2.257 2.257 0 0 0 2.25 2.25 2.257 2.257 0 0 0 2.25-2.25 2.257 2.257 0 0 0-2.25-2.25zm-6.75 0a2.257 2.257 0 0 0-2.25 2.25 2.257 2.257 0 0 0 2.25 2.25 2.257 2.257 0 0 0 2.25-2.25A2.257 2.257 0 0 0 632 1073z"/>
    </g>
</svg>
