<svg xmlns="http://www.w3.org/2000/svg" width="48" height="48" viewBox="0 0 48 48">
    <g fill="#353B54" fill-rule="evenodd" transform="translate(-685 -207)">
        <circle cx="709" cy="231" r="24" fill-opacity=".08"/>
        <path d="M711.768 216.281a.5.5 0 0 1 .5.5v2.577a.5.5 0 0 1-.5.5h-2.715v1.4l7.386 6.324a.595.595 0 0 1 .121.756l-.063.086-1.508 1.718a.603.603 0 0 1-.74.129l-.087-.059v1.779h3.35a1.787 1.787 0 0 1 1.767 1.648l.006.146v9.763a.569.569 0 0 1-.493.546l-.093.005h-20.134a.569.569 0 0 1-.558-.48l-.007-.092v-9.742a1.787 1.787 0 0 1 1.626-1.787l.146-.007h3.172v-1.778c-.059.088-.226.132-.358.132a.563.563 0 0 1-.366-.135l-.07-.072-1.477-1.719a.594.594 0 0 1-.01-.76l.074-.077 7.316-6.264v-4.537a.5.5 0 0 1 .41-.491l.09-.009zm-8.824 16.897h-3.172a.6.6 0 0 0-.579.51l-.006.097v9.127h3.757v-9.734zm7.063 7.182h-2.849v2.552h2.85v-2.552zm-1.441-14.93l-4.435 3.772v13.71h1.84v-3.155a.58.58 0 0 1 .483-.576l.094-.008h4.081c.295 0 .517.216.559.498l.007.097v3.144h1.78v-13.714l-4.41-3.768zm8.946 7.748h-3.35v9.734h3.936v-9.127a.599.599 0 0 0-.586-.607zm-8.87-2.65a1.91 1.91 0 1 1-1.903 2.058l-.006-.15.006-.148a1.91 1.91 0 0 1 1.903-1.76zm0 1.187a.723.723 0 1 0 .002 1.446.723.723 0 0 0-.002-1.446zm-.053-9.292l-6.628 5.674.704.82 5.539-4.72a.594.594 0 0 1 .683-.06l.088.062 5.515 4.72.722-.825-6.623-5.67zm2.68-5.142h-2.216v1.577h2.215v-1.577z"/>
    </g>
</svg>
