<svg xmlns="http://www.w3.org/2000/svg" width="32" height="32" viewBox="0 0 32 32">
    <path fill="#353B54" fill-rule="evenodd" d="M21.169 5c.436 0 .796.327.85.749l.006.107v.894h1.769a2.609 2.609 0 0 1 2.6 2.442l.006.164v14.438a2.609 2.609 0 0 1-2.442 2.6l-.164.006H7.606a2.609 2.609 0 0 1-2.6-2.442L5 23.794V9.356a2.609 2.609 0 0 1 2.442-2.6l.164-.006h1.769v-.894a.856.856 0 0 1 1.706-.107l.006.107v.894h9.225v-.894c0-.472.384-.856.857-.856zm3.518 7.838H6.712v10.956c0 .492.402.893.894.893h16.188a.895.895 0 0 0 .894-.893V12.837zM9.376 8.463H7.606a.895.895 0 0 0-.893.893v1.769h17.975V9.356a.895.895 0 0 0-.894-.894h-1.769v.457a.856.856 0 0 1-1.712 0v-.457h-9.225v.457a.856.856 0 0 1-1.713 0v-.457z"/>
</svg>
