<svg xmlns="http://www.w3.org/2000/svg" width="40" height="40" viewBox="0 0 40 40">
    <path fill="#353B54" fill-rule="nonzero" d="M19.65 8c1.609 0 2.918 1.286 2.918 2.869 0 .386-.078.762-.228 1.11 3.483 1.109 5.93 4.262 6.047 7.897l.004.274v6.412h.804c.61 0 1.105.487 1.105 1.088 0 .561-.431 1.022-.984 1.081l-.12.006h-4.754c-.49 2-2.277 3.463-4.382 3.558l-.22.005h-.38c-2.127 0-3.97-1.396-4.547-3.358l-.055-.205h-4.753c-.61 0-1.105-.486-1.105-1.087 0-.561.431-1.022.984-1.081l.12-.007h.805V20.15c0-3.75 2.481-7.035 6.05-8.17a2.809 2.809 0 0 1-.227-1.111C16.732 9.286 18.042 8 19.65 8zm2.457 20.738h-4.914l.084.153a2.535 2.535 0 0 0 2.182 1.234h.382c.975 0 1.848-.551 2.266-1.387zm-2.457-15c-3.602 0-6.532 2.877-6.532 6.412v6.412h13.064V20.15c0-3.535-2.93-6.413-6.532-6.413zm0-3.563a.702.702 0 0 0-.71.694c0 .382.319.694.71.694.391 0 .71-.312.71-.694a.702.702 0 0 0-.71-.694z"/>
</svg>
