<svg xmlns="http://www.w3.org/2000/svg" width="24" height="24" viewBox="0 0 24 24">
    <g fill="none" fill-rule="evenodd">
        <path d="M0 0h24v24H0z"/>
        <path fill="#353B54" fill-rule="nonzero" stroke="#FFF" stroke-width=".2" d="M10 7a2.99 2.99 0 0 1 2.987 2.987 2.98 2.98 0 0 1-.881 2.115l-.095.09.168.078c.444.215.855.496 1.221.837l.136.13.11.115a4.964 4.964 0 0 1 1.352 3.26l.002.16V17h-1.2v-.227c0-2.095-1.705-3.8-3.8-3.8a3.805 3.805 0 0 0-3.798 3.684l-.002.116V17H5v-.227c0-1.335.52-2.592 1.464-3.536.445-.444.96-.796 1.525-1.044a2.98 2.98 0 0 1-.976-2.206A2.99 2.99 0 0 1 10 7zm0 1.2c-.985 0-1.786.802-1.786 1.787 0 .984.801 1.786 1.786 1.786s1.786-.802 1.786-1.786c0-.985-.801-1.787-1.786-1.787z"/>
        <path fill="#353B54" fill-rule="nonzero" stroke="#FFF" d="M16.812 12.044c.332.198.645.433.935.703l.148.142.116.12a5.468 5.468 0 0 1 1.486 3.596l.003.168v.727h-2.2v-.727c0-1.82-1.481-3.3-3.3-3.3a3.303 3.303 0 0 0-3.298 3.191l-.002.109v.727H8.5v-.727c0-1.468.573-2.852 1.61-3.89a5.527 5.527 0 0 1 1.077-.838 3.477 3.477 0 0 1-.674-2.058A3.49 3.49 0 0 1 14 6.5a3.49 3.49 0 0 1 3.487 3.487c0 .746-.239 1.462-.675 2.057zM14 8.7c-.709 0-1.286.578-1.286 1.287 0 .708.577 1.286 1.286 1.286.709 0 1.286-.578 1.286-1.286 0-.71-.577-1.287-1.286-1.287z"/>
    </g>
</svg>
