<svg xmlns="http://www.w3.org/2000/svg" width="48" height="48" viewBox="0 0 48 48">
    <g fill="#353B54" fill-rule="evenodd" transform="translate(-514 -378)">
        <circle cx="538" cy="402" r="24" fill-opacity=".08"/>
        <path d="M549.615 400.941l.079.078a.845.845 0 0 1 .207.503c.019.288.029.581.029.87 0 4.783-2.655 9.129-6.768 11.225a.772.772 0 0 1-.631.033.809.809 0 0 1-.399-.34l-.056-.112-2.754-6.727a.845.845 0 0 1 .323-1.034c1.022-.638 1.642-1.757 1.658-2.995a.826.826 0 0 1 .594-.79l.11-.022 7.002-.874a.778.778 0 0 1 .606.185zm-22.917-.19l.122.005 7.003.874c.398.05.698.397.703.812.016 1.238.636 2.357 1.658 2.995.305.19.45.565.36.926l-.037.108-2.753 6.727a.812.812 0 0 1-.455.452.772.772 0 0 1-.632-.033c-4.113-2.097-6.767-6.443-6.767-11.225 0-.289.01-.582.029-.87a.84.84 0 0 1 .285-.58.79.79 0 0 1 .356-.176l.128-.015zm21.634 1.758l-5.49.686a5.227 5.227 0 0 1-1.47 2.945l-.187.177-.142.121 2.159 5.273c3.12-1.933 5.09-5.455 5.13-9.202zm-20.835 0c.04 3.672 1.933 7.135 4.958 9.093l.173.108 2.158-5.27a5.2 5.2 0 0 1-1.767-3.059l-.03-.186-5.492-.686zm10.418-2.402c1.211 0 2.195 1.026 2.195 2.285 0 1.26-.984 2.286-2.195 2.286-1.211 0-2.195-1.026-2.195-2.286s.984-2.285 2.195-2.285zm0 1.657c-.329 0-.598.281-.598.628 0 .348.269.63.598.63.329 0 .598-.282.598-.63 0-.347-.27-.628-.598-.628zm0-11.858c2.4 0 4.716.738 6.697 2.136.18.127.303.325.339.548a.86.86 0 0 1-.083.525l-.065.107-4.204 5.85a.78.78 0 0 1-1.032.227 3.272 3.272 0 0 0-1.652-.45c-.579 0-1.15.156-1.652.45a.778.778 0 0 1-.96-.14l-.072-.086-4.205-5.85a.853.853 0 0 1 .191-1.182 11.567 11.567 0 0 1 6.698-2.135zm0 1.657a9.975 9.975 0 0 0-4.542 1.09l-.323.171-.224.13 3.295 4.586a4.812 4.812 0 0 1 3.146-.153l.262.085.178.07 3.298-4.588-.313-.177a9.98 9.98 0 0 0-4.777-1.214z"/>
    </g>
</svg>
