<svg xmlns="http://www.w3.org/2000/svg" width="40" height="40" viewBox="0 0 40 40">
    <path fill="#353B54" fill-rule="nonzero" d="M20 9a6.577 6.577 0 0 1 6.57 6.57c0 1.78-.716 3.441-1.937 4.655l-.208.199.369.17c.976.473 1.88 1.092 2.686 1.84l.298.288.245.252a10.92 10.92 0 0 1 2.972 7.174L31 30.5v.5h-2.64v-.5c0-4.609-3.751-8.36-8.36-8.36-4.524 0-8.22 3.613-8.356 8.105l-.003.255v.5H9v-.5c0-2.937 1.145-5.701 3.222-7.778a10.99 10.99 0 0 1 3.353-2.298 6.558 6.558 0 0 1-2.145-4.854A6.577 6.577 0 0 1 20 9zm0 2.64a3.935 3.935 0 0 0-3.93 3.93A3.935 3.935 0 0 0 20 19.5a3.935 3.935 0 0 0 3.93-3.93A3.935 3.935 0 0 0 20 11.64z"/>
</svg>
