<svg xmlns="http://www.w3.org/2000/svg" width="32" height="32" viewBox="0 0 32 32">
    <g fill="none" fill-rule="evenodd" opacity=".6" transform="translate(-343 -1059)">
        <circle cx="359" cy="1075" r="16" fill="#FFF"/>
        <path fill="#00061F" d="M353.228 1069.228a.78.78 0 0 1 1.103 0l4.669 4.67 4.669-4.67a.78.78 0 1 1 1.103 1.103l-4.67 4.669 4.67 4.669a.78.78 0 0 1 .075 1.015l-.075.088a.78.78 0 0 1-1.103 0l-4.669-4.67-4.669 4.67a.78.78 0 1 1-1.103-1.103l4.67-4.669-4.67-4.669a.78.78 0 0 1-.075-1.015z"/>
    </g>
</svg>
